# xmcd
#
# Track frame offsets:
#	150
#	13844
#	27619
#	41969
#	59825
#	80188
#	98856
#	111000
#	130796
#	145186
#	163570
#	180548
#	198103
#	216164
#	231155
#
# Disc length: 3298 seconds
#
# Revision: 4
# Processed by: cddbd v1.5.2PL0 Copyright (c) Steve Scherf et al.
# Submitted via: EasyCDDAExtractor 16.0.6.1
#
DISCID=db0ce00f
DTITLE=The Beatles - Chillout Versions Vol1
DYEAR=2006
DGENRE=Ambient
TTITLE0=Marian Dacal - And I Love Her (Marian Dacal)
TTITLE1=Marian Dacal - All You Need Is Love (Marian Dacal)
TTITLE2=Marian Dacal - Strawberry Fields Forever (Marian Dacal)
TTITLE3=Marian Dacal - Norwegian Wood (Marian Dacal)
TTITLE4=Marian Dacal - Hey Jude (Marian Dacal)
TTITLE5=Aaron Lordson - The Long And Winding Road (Aaron Lordson)
TTITLE6=Odette Telleria - Something (Odette Telleria)
TTITLE7=Natalia Chapman - You've Got To Hide Your Love Away (Natalia Chapman)
TTITLE8=Odette Telleria - Here Comes The Sun (Odette Telleria)
TTITLE9=Natalia Chapman - With A Little Help From My Friends (Natalia Chapman)
TTITLE10=Natalia Chapman - The Fooll In The Hill (Natalia Chapman)
TTITLE11=Odette Telleria - A Day In The Life (Odette Telleria)
TTITLE12=Marian Dacal - Within You Without You (Marian Dacal)
TTITLE13=Marian Dacal - In My Life (Marian Dacal)
TTITLE14=Cris Camacho - When I'm Sixty-Four (Cris Camacho)
EXTD=YEAR: 2006
EXTT0=
EXTT1=
EXTT2=
EXTT3=
EXTT4=
EXTT5=
EXTT6=
EXTT7=
EXTT8=
EXTT9=
EXTT10=
EXTT11=
EXTT12=
EXTT13=
EXTT14=
PLAYORDER=
